PathFileType	4	(X/Y/Z)	D:\Share\Shared_Data\Ergonomics\Sit To Stand Pertubation\S2\Perturbed.trc
DataRate	CameraRate	NumFrames	NumMarkers	Units	OrigDataRate	OrigDataStartFrame	OrigNumFrames	
100	100	17	18	m	100	13381	241
Frame#	Time	R_Toe			R_ASIS			R_Pelvis			V_Sacral			L_Pelvis			L_ASIS			Clavical			R_Acromium			L_Acromium			Sternum			Torso			R_Thigh_Med			R_Thigh_Lat			R_Thigh			R_Shank_Med			R_Shank_Lat			R_Shank			R_Heel			
		X1	Y1	Z1	X2	Y2	Z2	X3	Y3	Z3	X4	Y4	Z4	X5	Y5	Z5	X6	Y6	Z6	X7	Y7	Z7	X8	Y8	Z8	X9	Y9	Z9	X10	Y10	Z10	X11	Y11	Z11	X12	Y12	Z12	X13	Y13	Z13	X14	Y14	Z14	X15	Y15	Z15	X16	Y16	Z16	X17	Y17	Z17	X18	Y18	Z18	

13381	133.8	0.42847781	0.065942627	0.14462697	-0.0821912	0.64266589	0.1238408	-0.16171719	0.64028717	0.16422639	-0.29525732	0.58029431	0.015329031	-0.20329173	0.6321488	-0.17756061	-0.10781097	0.64962744	-0.14543015	-0.089610672	1.0393199	-0.01012401	-0.18815298	1.0594484	0.192131	-0.18838779	1.0550378	-0.19911273	-0.041115044	0.88241479	-0.0053558798	-0.073887627	0.99591931	-0.12330328	0.31214435	0.51108871	0.1299463	0.27640634	0.51535803	0.23245328	0.11819833	0.62266302	0.17604282	0.29233698	0.11237566	0.10940788	0.27138208	0.10090923	0.2013364	0.28191565	0.36207236	0.24228758	0.19108652	0.062057243	0.14789757
13382	133.81	0.42847449	0.065954727	0.14462039	-0.082285744	0.64270355	0.12378425	-0.16182358	0.64032947	0.16420308	-0.29546298	0.58028973	0.015375771	-0.20342517	0.63222913	-0.17749373	-0.10795368	0.64953943	-0.1454771	-0.089235931	1.039333	-0.010005922	-0.18778767	1.0594194	0.19226967	-0.1880522	1.055094	-0.19899121	-0.041121586	0.88222278	-0.0053525558	-0.073561127	0.99590442	-0.1232651	0.31203781	0.51107425	0.12973308	0.27628561	0.51540613	0.23223807	0.11813123	0.62273883	0.17594429	0.29233383	0.11237965	0.10938697	0.27138879	0.10094587	0.2014142	0.28179285	0.36212976	0.24213539	0.19107997	0.062060211	0.14789912
13383	133.82	0.42847089	0.06596801	0.14461295	-0.082398216	0.64273663	0.12371867	-0.16194452	0.64037592	0.16417482	-0.29569003	0.58028314	0.015424836	-0.20357103	0.63231311	-0.17742677	-0.108123	0.64943353	-0.14553197	-0.088786064	1.039327	-0.0098814383	-0.18734669	1.0593862	0.19242021	-0.18764313	1.0551588	-0.19885715	-0.041034801	0.88202002	-0.0053444066	-0.073174126	0.99586841	-0.12322401	0.31188821	0.5110473	0.12949635	0.27616101	0.51545715	0.23200835	0.11805912	0.62282465	0.17583031	0.29233209	0.112384	0.1093635	0.27139752	0.10099245	0.20151439	0.28166299	0.36219415	0.24197694	0.19107245	0.062062679	0.1479012
13384	133.83	0.42846692	0.065982018	0.1446051	-0.082527641	0.64275757	0.12364827	-0.16207756	0.64042468	0.1641412	-0.29592596	0.58027325	0.015469606	-0.20372755	0.63239728	-0.17736166	-0.10831525	0.64932141	-0.14559373	-0.088254036	1.0392966	-0.0097517366	-0.18682054	1.0593486	0.19258192	-0.18715309	1.055235	-0.19870677	-0.040843132	0.88180817	-0.0053306985	-0.072719559	0.99580896	-0.12317252	0.31168536	0.51100797	0.12924188	0.27603326	0.51551068	0.23177214	0.11798057	0.62291833	0.17570665	0.29233261	0.11238896	0.10933794	0.27140805	0.10104957	0.20163791	0.28152869	0.36226511	0.24181845	0.19106419	0.062064365	0.14790373
13385	133.84	0.42846231	0.065996361	0.14459737	-0.082668633	0.64276373	0.12357664	-0.16221857	0.64047455	0.16410072	-0.29615988	0.58025909	0.015505239	-0.20389249	0.6324798	-0.17730049	-0.10851423	0.64921906	-0.14565808	-0.087632729	1.0392377	-0.0096156111	-0.1861996	1.0593054	0.19275395	-0.18657465	1.0553247	-0.19853824	-0.040561092	0.88157623	-0.0053127747	-0.072190636	0.99572321	-0.12310452	0.31141992	0.51095767	0.12897791	0.27590131	0.51556543	0.23153723	0.11789427	0.62301678	0.17558026	0.29233606	0.11239457	0.10931053	0.27142004	0.10111707	0.20178348	0.28139136	0.36234134	0.24166527	0.19105566	0.062064915	0.14790669
13386	133.85	0.42845697	0.06601062	0.14459003	-0.0828106	0.64275922	0.12350607	-0.1623627	0.64052472	0.16405186	-0.29638553	0.58023987	0.015529929	-0.20406317	0.63255957	-0.17724538	-0.10869496	0.64914178	-0.14571857	-0.08691478	1.0391462	-0.0094706907	-0.1854738	1.0592565	0.19293617	-0.18590005	1.0554282	-0.19835181	-0.040209579	0.88130884	-0.0052916775	-0.071581062	0.99560699	-0.12301698	0.31108652	0.5108989	0.12871487	0.2757627	0.5156192	0.23131071	0.11779935	0.62311694	0.17545901	0.29234268	0.1124008	0.10928136	0.27143256	0.10119337	0.20194588	0.28125131	0.36242026	0.24152138	0.19104735	0.062064034	0.14791006
13387	133.86	0.4284509	0.066024567	0.14458273	-0.082938034	0.64275433	0.123438	-0.1625056	0.64057446	0.16399457	-0.29660101	0.58021576	0.01554411	-0.20423711	0.63263629	-0.17719809	-0.10885103	0.64908569	-0.14577293	-0.086092873	1.0390187	-0.0093147326	-0.18463292	1.0592004	0.19312891	-0.18512134	1.0555442	-0.19814926	-0.039798019	0.880995	-0.0052664962	-0.070885117	0.99545557	-0.12291003	0.31068823	0.51083618	0.12846439	0.27561407	0.51566949	0.23109834	0.11769534	0.62321625	0.17535088	0.29235352	0.1124078	0.10925055	0.27144376	0.10127446	0.20211435	0.28110776	0.36249893	0.24138965	0.19103943	0.062061607	0.14791371
13388	133.87	0.4284444	0.066038406	0.14457512	-0.083031914	0.64276331	0.12337328	-0.16264424	0.6406228	0.16393076	-0.2968075	0.58018677	0.015549294	-0.20441232	0.63270966	-0.17715923	-0.1090131	0.64901703	-0.14582718	-0.08516024	1.0388514	-0.0091460247	-0.18366803	1.0591362	0.19333224	-0.18423009	1.0556685	-0.19793291	-0.039324589	0.88062897	-0.0052351885	-0.070097321	0.99526343	-0.12278658	0.31024435	0.51077646	0.12823743	0.27545285	0.51571387	0.23090506	0.11758194	0.62331256	0.17526311	0.29236948	0.112416	0.10921849	0.27145102	0.10135355	0.20227307	0.28095895	0.36257431	0.24127272	0.19103188	0.062057781	0.14791739
13389	133.88	0.42843784	0.066052612	0.14456679	-0.083073502	0.64280054	0.12331231	-0.16277689	0.64066876	0.16386382	-0.2970072	0.58015356	0.015547389	-0.20458797	0.63277869	-0.17712762	-0.10922709	0.64889868	-0.14588998	-0.084110764	1.038641	-0.0089635468	-0.18257228	1.0590619	0.19354527	-0.18321713	1.0557972	-0.19770428	-0.038787197	0.88020642	-0.0051965861	-0.069212288	0.99502545	-0.12265091	0.30979306	0.51072894	0.12804335	0.27527853	0.51575085	0.23073589	0.11745907	0.62340411	0.17520151	0.29239087	0.11242564	0.10918597	0.27145178	0.10142311	0.20240625	0.28080325	0.36264355	0.24117296	0.19102454	0.062052822	0.14792093
13390	133.89	0.42843134	0.066067612	0.1445576	-0.083049004	0.64287592	0.12325552	-0.16290314	0.64071112	0.16379752	-0.29720212	0.58011664	0.015540404	-0.20476373	0.63284198	-0.17710081	-0.10952036	0.64871887	-0.14596519	-0.082939186	1.0383826	-0.0087674789	-0.18134067	1.0589747	0.19376624	-0.18207301	1.0559263	-0.19746347	-0.038185677	0.87972333	-0.005150023	-0.068224365	0.99473688	-0.12250589	0.30937766	0.51070111	0.12788905	0.27509244	0.51577942	0.23059633	0.11732718	0.62348956	0.17517015	0.29241614	0.11243633	0.10915427	0.27144452	0.10147784	0.20250514	0.28063971	0.3627045	0.24109221	0.19101726	0.062047085	0.1479245
13391	133.9	0.42842477	0.066083809	0.14454774	-0.082956779	0.6429895	0.1232042	-0.16302374	0.64074927	0.16373499	-0.29739273	0.58007587	0.015530209	-0.20493953	0.63289813	-0.17707565	-0.10988406	0.64849744	-0.14604855	-0.081640686	1.0380704	-0.0085591154	-0.1799695	1.0588724	0.1939937	-0.18078867	1.0560527	-0.19720947	-0.037516258	0.8791778	-0.0050932994	-0.067127342	0.9943938	-0.12235103	0.30902167	0.51069354	0.12777847	0.27489676	0.51579974	0.23049152	0.11718735	0.62356787	0.1751714	0.2924426	0.1124474	0.10912515	0.27142941	0.10151595	0.20256998	0.28046817	0.36275531	0.24103233	0.19100981	0.062040867	0.14792839
13392	133.91	0.42841766	0.066101624	0.14453787	-0.082817268	0.64312518	0.12316071	-0.16314029	0.64078314	0.16367751	-0.2975784	0.58003088	0.01551818	-0.20511514	0.63294598	-0.1770491	-0.11027367	0.64827637	-0.14612881	-0.080209824	1.0376992	-0.0083400393	-0.17845508	1.0587539	0.19422801	-0.17935553	1.0561738	-0.19694147	-0.036772133	0.8785694	-0.005022541	-0.065914864	0.99399292	-0.12218336	0.30871768	0.5106991	0.12771267	0.27469382	0.51581262	0.23042508	0.11704109	0.62363843	0.17520622	0.29246771	0.1124585	0.1091005	0.27140744	0.10153802	0.20260704	0.28028934	0.36279526	0.24099551	0.19100198	0.062034248	0.14793286
13393	133.92	0.42840952	0.066121605	0.14452884	-0.082669182	0.64325433	0.12312765	-0.16325478	0.64081335	0.16362375	-0.29775748	0.57998096	0.015505063	-0.20529025	0.63298438	-0.17701915	-0.11063828	0.6480929	-0.14619464	-0.078639961	1.0372642	-0.0081111813	-0.17679309	1.0586193	0.19447104	-0.17776523	1.0562875	-0.19665878	-0.035947559	0.87789636	-0.0049335513	-0.064581093	0.99352966	-0.12200008	0.30843845	0.51070731	0.12769011	0.27448511	0.51581934	0.23039857	0.11688982	0.62370062	0.17527406	0.29248938	0.11246954	0.10908193	0.27137988	0.10154602	0.20262482	0.28010455	0.36282446	0.24098428	0.19099371	0.062027164	0.1479381
13394	133.93	0.4283999	0.066144424	0.1445218	-0.082547028	0.64335309	0.12310675	-0.16336955	0.64084076	0.16357121	-0.2979285	0.57992523	0.015491055	-0.20546469	0.63301306	-0.17698549	-0.11096051	0.64794647	-0.14624356	-0.076923927	1.0367621	-0.0078717294	-0.17497842	1.0584686	0.19472505	-0.17600955	1.0563932	-0.19636092	-0.03503878	0.87715491	-0.0048231339	-0.063120842	0.99299902	-0.12179989	0.30815738	0.51071042	0.127707	0.27427109	0.51582062	0.23041107	0.11673455	0.62375403	0.17537262	0.29250552	0.11248026	0.10907032	0.27134781	0.1015425	0.20263148	0.27991537	0.36284363	0.24100095	0.190985	0.062019489	0.14794452
13395	133.94	0.42838849	0.066170357	0.14451762	-0.082465622	0.6434129	0.1230983	-0.16348723	0.64086603	0.16351782	-0.29809061	0.57986273	0.015475722	-0.20563876	0.63303247	-0.17694986	-0.11126024	0.6478028	-0.14628229	-0.075054359	1.0361915	-0.0076190848	-0.17300485	1.058301	0.19499165	-0.1740811	1.0564911	-0.19604732	-0.034042988	0.87633972	-0.0046903043	-0.06152924	0.99239587	-0.1215826	0.30786292	0.51070673	0.12775901	0.27405124	0.5158175	0.23045929	0.11657582	0.62379877	0.17549835	0.29251434	0.11248972	0.1090655	0.27131189	0.10152998	0.2026335	0.27972333	0.36285403	0.24104688	0.19097588	0.062011059	0.1479527
13396	133.95	0.42837543	0.066199097	0.14451651	-0.082423981	0.6434375	0.12310141	-0.16361058	0.64088885	0.16346272	-0.29824414	0.57979291	0.015457949	-0.20581412	0.63304401	-0.17691548	-0.11156994	0.64762158	-0.14632028	-0.073023453	1.0355505	-0.0073506441	-0.17086404	1.0581139	0.1952717	-0.17197371	1.0565824	-0.19571759	-0.032957539	0.87544513	-0.0045367455	-0.059801704	0.99171588	-0.12134898	0.30756314	0.51070117	0.12784267	0.2738251	0.5158103	0.23053847	0.11641364	0.62383502	0.17564699	0.29251462	0.11249669	0.1090663	0.27127274	0.10151066	0.20263504	0.27952975	0.36285715	0.24112146	0.19096622	0.062001747	0.14796298
13397	133.96	0.42836096	0.066229691	0.14451773	-0.082414452	0.6434361	0.12311441	-0.16374199	0.64090833	0.16340588	-0.29839062	0.57971649	0.015436312	-0.20599379	0.63304944	-0.17688586	-0.11191233	0.64737982	-0.14636453	-0.070822708	1.0348358	-0.0070648432	-0.16854524	1.0579041	0.19556592	-0.16968193	1.0566677	-0.19537119	-0.031779196	0.87446527	-0.0043657718	-0.057933926	0.99095551	-0.12110104	0.30727893	0.5107019	0.12795526	0.2735925	0.51579938	0.23064336	0.11624722	0.62386261	0.17581374	0.2925062	0.11250014	0.1090712	0.27123132	0.10148631	0.20263872	0.27933582	0.36285455	0.24122151	0.19095598	0.061991547	0.14797552
